<svg xmlns="http://www.w3.org/2000/svg" viewBox="0 0 1600 900" preserveAspectRatio="xMidYMid slice">
  <defs>
    <linearGradient id="labWall" x1="0" y1="0" x2="0" y2="1">
      <stop offset="0%" stop-color="#dceff0"/>
      <stop offset="100%" stop-color="#b4d7d9"/>
    </linearGradient>
  </defs>
  <rect width="1600" height="900" fill="url(#labWall)"/>
  <rect x="0" y="640" width="1600" height="260" fill="#88a7a9"/>
  <rect x="0" y="640" width="1600" height="20" fill="#a3c1c3"/>
  <rect x="120" y="500" width="380" height="160" fill="#ffffff" opacity="0.85" rx="8"/>
  <rect x="160" y="540" width="100" height="100" fill="#bfe2f5" stroke="#7e9bb0" stroke-width="3"/>
  <rect x="280" y="540" width="100" height="100" fill="#f7d4dc" stroke="#b58591" stroke-width="3"/>
  <rect x="400" y="540" width="60" height="100" fill="#d8e5b1" stroke="#7ea05a" stroke-width="3"/>
  <g transform="translate(680,420)">
    <ellipse cx="40" cy="180" rx="70" ry="22" fill="#3b6a6c" opacity="0.4"/>
    <rect x="20" y="20" width="40" height="170" fill="#a0d6db" stroke="#48787a" stroke-width="3"/>
    <rect x="14" y="14" width="52" height="14" fill="#48787a"/>
    <rect x="22" y="100" width="36" height="80" fill="#5fbf9a" opacity="0.7"/>
  </g>
  <g transform="translate(820,420)">
    <ellipse cx="60" cy="180" rx="80" ry="24" fill="#3b6a6c" opacity="0.4"/>
    <path d="M40 30 L80 30 L100 180 L20 180 Z" fill="#dff3f4" stroke="#48787a" stroke-width="3"/>
    <rect x="34" y="22" width="52" height="14" fill="#48787a"/>
    <rect x="34" y="120" width="52" height="60" fill="#f6c75d" opacity="0.75"/>
  </g>
  <g transform="translate(1000,440)">
    <rect x="0" y="0" width="220" height="160" fill="#ffffff" rx="6" stroke="#7e9bb0" stroke-width="3"/>
    <line x1="20" y1="40" x2="200" y2="40" stroke="#cf3d3d" stroke-width="3"/>
    <line x1="20" y1="70" x2="200" y2="70" stroke="#7e9bb0" stroke-width="2"/>
    <line x1="20" y1="100" x2="200" y2="100" stroke="#7e9bb0" stroke-width="2"/>
    <line x1="20" y1="130" x2="160" y2="130" stroke="#7e9bb0" stroke-width="2"/>
  </g>
  <text x="40" y="870" font-family="Georgia, serif" font-size="22" fill="#ffffff" opacity="0.9">placeholder: lab</text>
</svg>
