<svg xmlns="http://www.w3.org/2000/svg" viewBox="0 0 1600 900" preserveAspectRatio="xMidYMid slice">
  <defs>
    <linearGradient id="homeSky" x1="0" y1="0" x2="0" y2="1">
      <stop offset="0%" stop-color="#fdeacb"/>
      <stop offset="100%" stop-color="#f5cfa6"/>
    </linearGradient>
  </defs>
  <rect width="1600" height="900" fill="url(#homeSky)"/>
  <circle cx="290" cy="220" r="80" fill="#ffe28a" opacity="0.9"/>
  <rect x="0" y="700" width="1600" height="200" fill="#a78b6c"/>
  <rect x="0" y="700" width="1600" height="40" fill="#b89977"/>
  <rect x="430" y="380" width="740" height="380" fill="#f0ddc1"/>
  <polygon points="400,400 800,210 1200,400" fill="#7c4a3a"/>
  <rect x="780" y="500" width="140" height="260" fill="#5b3a2c"/>
  <circle cx="900" cy="630" r="6" fill="#f7d97a"/>
  <g fill="#bfe2f5" stroke="#7e9bb0" stroke-width="3">
    <rect x="500" y="450" width="180" height="120" rx="6"/>
    <rect x="1020" y="450" width="180" height="120" rx="6"/>
    <line x1="590" y1="450" x2="590" y2="570"/>
    <line x1="500" y1="510" x2="680" y2="510"/>
    <line x1="1110" y1="450" x2="1110" y2="570"/>
    <line x1="1020" y1="510" x2="1200" y2="510"/>
  </g>
  <ellipse cx="1340" cy="720" rx="80" ry="20" fill="#7da37f" opacity="0.7"/>
  <rect x="1320" y="660" width="40" height="60" fill="#5a8a5d"/>
  <text x="40" y="870" font-family="Georgia, serif" font-size="22" fill="#5b3a2c" opacity="0.85">placeholder: modern home</text>
</svg>
