<svg xmlns="http://www.w3.org/2000/svg" viewBox="0 0 1600 900" preserveAspectRatio="xMidYMid slice">
  <defs>
    <linearGradient id="lb_wall" x1="0" x2="0" y1="0" y2="1">
      <stop offset="0" stop-color="#5a4530"/>
      <stop offset="1" stop-color="#3a2e20"/>
    </linearGradient>
    <radialGradient id="lb_candle" cx="0.5" cy="0.5" r="0.6">
      <stop offset="0" stop-color="#ffe896" stop-opacity="0.7"/>
      <stop offset="1" stop-color="#7a5a18" stop-opacity="0"/>
    </radialGradient>
  </defs>
  <rect width="1600" height="900" fill="url(#lb_wall)"/>
  <g transform="translate(0 0)">
    <rect x="0" y="0" width="500" height="780" fill="#3a2418"/>
    <rect x="20" y="20" width="460" height="740" fill="#5a3a26"/>
    <g>
      <rect x="20" y="20" width="460" height="20" fill="#3a2418"/>
      <rect x="40" y="40" width="20" height="100" fill="#a3242b"/>
      <rect x="60" y="40" width="20" height="100" fill="#26527a"/>
      <rect x="80" y="40" width="20" height="100" fill="#3a8a4a"/>
      <rect x="100" y="40" width="20" height="100" fill="#7a4a26"/>
      <rect x="120" y="40" width="20" height="100" fill="#a3242b"/>
      <rect x="140" y="40" width="20" height="100" fill="#26527a"/>
      <rect x="160" y="40" width="20" height="100" fill="#5a4030"/>
      <rect x="180" y="40" width="20" height="100" fill="#3a8a4a"/>
      <rect x="200" y="40" width="20" height="100" fill="#7a4a26"/>
      <rect x="220" y="40" width="20" height="100" fill="#26527a"/>
      <rect x="240" y="40" width="20" height="100" fill="#a3242b"/>
      <rect x="260" y="40" width="20" height="100" fill="#3a8a4a"/>
      <rect x="280" y="40" width="20" height="100" fill="#7a4a26"/>
      <rect x="300" y="40" width="20" height="100" fill="#5a4030"/>
      <rect x="320" y="40" width="20" height="100" fill="#26527a"/>
      <rect x="340" y="40" width="20" height="100" fill="#a3242b"/>
      <rect x="360" y="40" width="20" height="100" fill="#3a8a4a"/>
      <rect x="380" y="40" width="20" height="100" fill="#7a4a26"/>
      <rect x="400" y="40" width="20" height="100" fill="#26527a"/>
      <rect x="420" y="40" width="20" height="100" fill="#a3242b"/>
      <rect x="440" y="40" width="40" height="100" fill="#5a4030"/>
      <rect x="20" y="140" width="460" height="20" fill="#3a2418"/>
    </g>
    <use href="#lb_shelf" x="0" y="160"/>
  </g>
  <g id="lb_shelf">
    <rect x="20" y="20" width="460" height="20" fill="#3a2418"/>
    <rect x="40" y="40" width="20" height="100" fill="#26527a"/>
    <rect x="60" y="40" width="20" height="100" fill="#a3242b"/>
    <rect x="80" y="40" width="20" height="100" fill="#7a4a26"/>
    <rect x="100" y="40" width="20" height="100" fill="#3a8a4a"/>
    <rect x="120" y="40" width="20" height="100" fill="#5a4030"/>
    <rect x="140" y="40" width="20" height="100" fill="#a3242b"/>
    <rect x="160" y="40" width="20" height="100" fill="#26527a"/>
    <rect x="180" y="40" width="20" height="100" fill="#7a4a26"/>
    <rect x="200" y="40" width="20" height="100" fill="#a3242b"/>
    <rect x="220" y="40" width="20" height="100" fill="#3a8a4a"/>
    <rect x="240" y="40" width="20" height="100" fill="#5a4030"/>
    <rect x="260" y="40" width="20" height="100" fill="#26527a"/>
    <rect x="280" y="40" width="20" height="100" fill="#a3242b"/>
    <rect x="300" y="40" width="20" height="100" fill="#7a4a26"/>
    <rect x="320" y="40" width="20" height="100" fill="#3a8a4a"/>
    <rect x="340" y="40" width="20" height="100" fill="#a3242b"/>
    <rect x="360" y="40" width="20" height="100" fill="#5a4030"/>
    <rect x="380" y="40" width="20" height="100" fill="#26527a"/>
    <rect x="400" y="40" width="20" height="100" fill="#7a4a26"/>
    <rect x="420" y="40" width="20" height="100" fill="#3a8a4a"/>
    <rect x="440" y="40" width="40" height="100" fill="#5a4030"/>
    <rect x="20" y="140" width="460" height="20" fill="#3a2418"/>
  </g>
  <use href="#lb_shelf" x="0" y="320"/>
  <use href="#lb_shelf" x="0" y="480"/>
  <use href="#lb_shelf" x="0" y="640"/>
  <use href="#lb_shelf" x="1100" y="0"/>
  <use href="#lb_shelf" x="1100" y="160"/>
  <use href="#lb_shelf" x="1100" y="320"/>
  <use href="#lb_shelf" x="1100" y="480"/>
  <use href="#lb_shelf" x="1100" y="640"/>
  <g transform="translate(800 720)">
    <rect x="-200" y="-30" width="400" height="120" fill="#5a3318"/>
    <rect x="-200" y="-40" width="400" height="20" fill="#7a4a26"/>
    <rect x="-180" y="90" width="20" height="60" fill="#3a2010"/>
    <rect x="160" y="90" width="20" height="60" fill="#3a2010"/>
    <g transform="translate(0 -80)">
      <path d="M-90 0 L0 -10 L90 0 L90 10 L0 0 L-90 10 Z" fill="#f5e6c8"/>
      <line x1="-80" y1="-2" x2="80" y2="-2" stroke="#5a3a1a" stroke-width="1" opacity="0.7"/>
      <line x1="-80" y1="3" x2="80" y2="3" stroke="#5a3a1a" stroke-width="1" opacity="0.7"/>
      <text x="0" y="2" text-anchor="middle" font-family="serif" font-size="12" fill="#3a2418" opacity="0.6">~</text>
    </g>
    <g transform="translate(140 -80)">
      <rect x="-6" y="-50" width="12" height="50" fill="#fdf6d0"/>
      <ellipse cx="0" cy="0" rx="14" ry="6" fill="#d4a832"/>
      <path d="M-3 -52 Q0 -68 3 -52" fill="#ff8a3a"/>
      <ellipse cx="0" cy="-58" rx="22" ry="20" fill="url(#lb_candle)"/>
    </g>
  </g>
  <g transform="translate(560 820)">
    <path d="M-40 0 L40 0 L60 -8 L60 -40 L-60 -40 L-60 -8 Z" fill="#f5e6c8"/>
    <path d="M-60 -40 Q-70 -30 -60 -8" fill="#e0c896"/>
    <text x="0" y="-22" text-anchor="middle" font-family="serif" font-size="14" fill="#5a3a1a" opacity="0.7">scroll</text>
  </g>
  <text x="1580" y="880" text-anchor="end" font-family="ui-monospace, Menlo, monospace" font-size="22" fill="rgba(0,0,0,0.55)">placeholder: castle_library</text>
</svg>
