<svg xmlns="http://www.w3.org/2000/svg" viewBox="0 0 1600 900" preserveAspectRatio="xMidYMid slice">
  <defs>
    <linearGradient id="og_sky" x1="0" x2="0" y1="0" y2="1">
      <stop offset="0" stop-color="#9cb4cf"/>
      <stop offset="1" stop-color="#d6c89e"/>
    </linearGradient>
    <linearGradient id="og_stone" x1="0" x2="0" y1="0" y2="1">
      <stop offset="0" stop-color="#8b8170"/>
      <stop offset="1" stop-color="#5e5648"/>
    </linearGradient>
  </defs>
  <rect width="1600" height="900" fill="url(#og_sky)"/>
  <rect x="0" y="0" width="280" height="900" fill="url(#og_stone)"/>
  <rect x="1320" y="0" width="280" height="900" fill="url(#og_stone)"/>
  <g fill="#6e6557" opacity="0.6">
    <rect x="20" y="80" width="240" height="40"/>
    <rect x="20" y="200" width="240" height="40"/>
    <rect x="20" y="320" width="240" height="40"/>
    <rect x="20" y="440" width="240" height="40"/>
    <rect x="20" y="560" width="240" height="40"/>
    <rect x="20" y="680" width="240" height="40"/>
    <rect x="1340" y="80" width="240" height="40"/>
    <rect x="1340" y="200" width="240" height="40"/>
    <rect x="1340" y="320" width="240" height="40"/>
    <rect x="1340" y="440" width="240" height="40"/>
    <rect x="1340" y="560" width="240" height="40"/>
    <rect x="1340" y="680" width="240" height="40"/>
  </g>
  <path d="M280 0 L280 460 Q800 380 1320 460 L1320 0 Z" fill="url(#og_stone)"/>
  <path d="M280 460 Q800 380 1320 460 L1320 820 L280 820 Z" fill="#1f1c18"/>
  <g stroke="#3a342b" stroke-width="6" fill="none">
    <line x1="340" y1="490" x2="340" y2="820"/>
    <line x1="420" y1="475" x2="420" y2="820"/>
    <line x1="500" y1="465" x2="500" y2="820"/>
    <line x1="580" y1="458" x2="580" y2="820"/>
    <line x1="660" y1="453" x2="660" y2="820"/>
    <line x1="740" y1="450" x2="740" y2="820"/>
    <line x1="820" y1="450" x2="820" y2="820"/>
    <line x1="900" y1="453" x2="900" y2="820"/>
    <line x1="980" y1="458" x2="980" y2="820"/>
    <line x1="1060" y1="465" x2="1060" y2="820"/>
    <line x1="1140" y1="475" x2="1140" y2="820"/>
    <line x1="1220" y1="490" x2="1220" y2="820"/>
    <line x1="280" y1="560" x2="1320" y2="560"/>
    <line x1="280" y1="680" x2="1320" y2="680"/>
  </g>
  <g>
    <rect x="540" y="40" width="120" height="320" fill="#a3242b"/>
    <polygon points="540,360 600,420 660,360" fill="#a3242b"/>
    <polygon points="560,80 580,80 580,220 600,220 600,80 620,80 620,260 560,260" fill="#d4a83a" opacity="0.85"/>
    <rect x="940" y="40" width="120" height="320" fill="#26527a"/>
    <polygon points="940,360 1000,420 1060,360" fill="#26527a"/>
    <circle cx="1000" cy="180" r="34" fill="#d4a83a" opacity="0.85"/>
  </g>
  <g fill="#6b6357">
    <rect x="0" y="820" width="200" height="40"/>
    <rect x="200" y="820" width="220" height="40"/>
    <rect x="420" y="820" width="180" height="40"/>
    <rect x="600" y="820" width="240" height="40"/>
    <rect x="840" y="820" width="200" height="40"/>
    <rect x="1040" y="820" width="220" height="40"/>
    <rect x="1260" y="820" width="200" height="40"/>
    <rect x="1460" y="820" width="180" height="40"/>
    <rect x="0" y="860" width="240" height="40"/>
    <rect x="240" y="860" width="200" height="40"/>
    <rect x="440" y="860" width="220" height="40"/>
    <rect x="660" y="860" width="200" height="40"/>
    <rect x="860" y="860" width="240" height="40"/>
    <rect x="1100" y="860" width="200" height="40"/>
    <rect x="1300" y="860" width="220" height="40"/>
    <rect x="1520" y="860" width="160" height="40"/>
  </g>
  <text x="1580" y="880" text-anchor="end" font-family="ui-monospace, Menlo, monospace" font-size="22" fill="rgba(0,0,0,0.55)">placeholder: castle_outer_gate</text>
</svg>
