<svg xmlns="http://www.w3.org/2000/svg" viewBox="0 0 1600 900" preserveAspectRatio="xMidYMid slice">
  <defs>
    <linearGradient id="rc_wall" x1="0" x2="0" y1="0" y2="1">
      <stop offset="0" stop-color="#6e4f6a"/>
      <stop offset="1" stop-color="#3e2a3a"/>
    </linearGradient>
    <radialGradient id="rc_fire" cx="0.5" cy="0.7" r="0.5">
      <stop offset="0" stop-color="#fff5b8"/>
      <stop offset="0.5" stop-color="#ff8a3a"/>
      <stop offset="1" stop-color="#7a1818" stop-opacity="0.4"/>
    </radialGradient>
  </defs>
  <rect width="1600" height="900" fill="url(#rc_wall)"/>
  <g fill="#3a2a3a" opacity="0.6">
    <rect x="0" y="780" width="1600" height="120"/>
    <rect x="0" y="780" width="1600" height="20" fill="#5a3a5a"/>
  </g>
  <g transform="translate(800 540)">
    <rect x="-280" y="-280" width="560" height="320" fill="#5a3a26"/>
    <rect x="-280" y="-280" width="560" height="40" fill="#7a4a36"/>
    <rect x="-280" y="40" width="560" height="100" fill="#3a2418"/>
    <rect x="-310" y="-360" width="40" height="500" fill="#3a2418"/>
    <rect x="270" y="-360" width="40" height="500" fill="#3a2418"/>
    <polygon points="-310,-360 -290,-380 -270,-360" fill="#d4a83a"/>
    <polygon points="270,-360 290,-380 310,-360" fill="#d4a83a"/>
    <rect x="-310" y="-380" width="620" height="20" fill="#5a3a26"/>
    <path d="M-310 -360 Q-280 -240 -310 0 L-260 0 Q-240 -240 -260 -360 Z" fill="#a3242b" opacity="0.85"/>
    <path d="M310 -360 Q280 -240 310 0 L260 0 Q240 -240 260 -360 Z" fill="#a3242b" opacity="0.85"/>
    <rect x="-260" y="-160" width="520" height="200" fill="#fdf6e0"/>
    <ellipse cx="0" cy="-150" rx="160" ry="20" fill="#d4c8a8"/>
    <rect x="-220" y="-180" width="120" height="40" rx="8" fill="#fff8e8"/>
    <rect x="100" y="-180" width="120" height="40" rx="8" fill="#fff8e8"/>
  </g>
  <g transform="translate(180 700)">
    <rect x="-100" y="-100" width="200" height="160" fill="#5a3a26"/>
    <rect x="-100" y="-110" width="200" height="14" fill="#7a4a36"/>
    <rect x="-100" y="-60" width="200" height="6" fill="#3a2418"/>
    <rect x="-100" y="-20" width="200" height="6" fill="#3a2418"/>
    <circle cx="-50" cy="-80" r="4" fill="#d4a83a"/>
    <circle cx="50" cy="-80" r="4" fill="#d4a83a"/>
    <circle cx="-50" cy="-40" r="4" fill="#d4a83a"/>
    <circle cx="50" cy="-40" r="4" fill="#d4a83a"/>
    <circle cx="-50" cy="0" r="4" fill="#d4a83a"/>
    <circle cx="50" cy="0" r="4" fill="#d4a83a"/>
    <rect x="-90" y="-150" width="40" height="40" rx="6" fill="#a3884f"/>
    <rect x="-50" y="-160" width="50" height="50" fill="#26527a"/>
    <ellipse cx="40" cy="-150" rx="20" ry="14" fill="#7a4a36"/>
  </g>
  <g transform="translate(1380 720)">
    <rect x="-160" y="-260" width="280" height="280" fill="#3a2418"/>
    <rect x="-180" y="-280" width="320" height="40" fill="#5a3a26"/>
    <rect x="-140" y="-220" width="240" height="180" fill="#1a0e08"/>
    <ellipse cx="-20" cy="-80" rx="120" ry="40" fill="url(#rc_fire)"/>
    <path d="M-80 -50 Q-60 -120 -30 -160 Q-10 -100 0 -140 Q10 -100 30 -150 Q50 -110 80 -50 Z" fill="#ff6b1f" opacity="0.85"/>
    <path d="M-40 -50 Q-20 -110 0 -130 Q20 -110 40 -50 Z" fill="#ffd060"/>
    <rect x="-60" y="-280" width="120" height="20" fill="#5a3a26"/>
    <path d="M-40 -300 Q0 -340 40 -300 Z" fill="#3a2418"/>
  </g>
  <g transform="translate(1100 220)">
    <rect x="-80" y="0" width="160" height="280" fill="#a3242b"/>
    <rect x="-90" y="-10" width="180" height="20" fill="#d4a83a"/>
    <polygon points="-80,280 0,310 80,280" fill="#a3242b"/>
    <g fill="#d4a83a" opacity="0.85">
      <circle cx="-30" cy="60" r="20"/>
      <circle cx="30" cy="60" r="20"/>
      <polygon points="0,140 -22,180 22,180"/>
      <polygon points="0,220 -16,200 -22,240 0,232 22,240 16,200"/>
    </g>
  </g>
  <text x="1580" y="880" text-anchor="end" font-family="ui-monospace, Menlo, monospace" font-size="22" fill="rgba(0,0,0,0.55)">placeholder: castle_royal_chambers</text>
</svg>
