<svg xmlns="http://www.w3.org/2000/svg" viewBox="0 0 1600 900" preserveAspectRatio="xMidYMid slice">
  <defs>
    <linearGradient id="rg_sky" x1="0" x2="0" y1="0" y2="1">
      <stop offset="0" stop-color="#a8d6f0"/>
      <stop offset="1" stop-color="#dceedc"/>
    </linearGradient>
    <radialGradient id="rg_water" cx="0.5" cy="0.5" r="0.5">
      <stop offset="0" stop-color="#bce4f0"/>
      <stop offset="1" stop-color="#5a8aaa"/>
    </radialGradient>
  </defs>
  <rect width="1600" height="900" fill="url(#rg_sky)"/>
  <ellipse cx="280" cy="180" rx="120" ry="34" fill="#fff" opacity="0.7"/>
  <ellipse cx="1320" cy="220" rx="140" ry="36" fill="#fff" opacity="0.6"/>
  <g fill="#5e6a7a" opacity="0.4">
    <rect x="0" y="320" width="200" height="200"/>
    <polygon points="0,320 100,260 200,320"/>
    <rect x="1400" y="320" width="200" height="200"/>
    <polygon points="1400,320 1500,260 1600,320"/>
  </g>
  <ellipse cx="800" cy="900" rx="1200" ry="200" fill="#a8c89a"/>
  <g fill="#3a8a4e">
    <rect x="80" y="540" width="280" height="100" rx="20"/>
    <rect x="80" y="500" width="280" height="50" rx="14" fill="#4a9a5e"/>
    <rect x="1240" y="540" width="280" height="100" rx="20"/>
    <rect x="1240" y="500" width="280" height="50" rx="14" fill="#4a9a5e"/>
  </g>
  <g transform="translate(220 480)" fill="#e85a78">
    <circle cx="0" cy="0" r="14"/>
    <circle cx="40" cy="-10" r="14"/>
    <circle cx="-40" cy="-10" r="14"/>
    <circle cx="20" cy="20" r="10" fill="#f0a8b8"/>
    <circle cx="-20" cy="20" r="10" fill="#f0a8b8"/>
  </g>
  <g transform="translate(1380 480)" fill="#e85a78">
    <circle cx="0" cy="0" r="14"/>
    <circle cx="40" cy="-10" r="14"/>
    <circle cx="-40" cy="-10" r="14"/>
    <circle cx="20" cy="20" r="10" fill="#f0a8b8"/>
    <circle cx="-20" cy="20" r="10" fill="#f0a8b8"/>
  </g>
  <g fill="#3a8a4e">
    <rect x="450" y="600" width="160" height="80" rx="14"/>
    <rect x="990" y="600" width="160" height="80" rx="14"/>
  </g>
  <g transform="translate(800 600)">
    <ellipse cx="0" cy="80" rx="180" ry="34" fill="#5a5246"/>
    <ellipse cx="0" cy="60" rx="160" ry="26" fill="url(#rg_water)"/>
    <rect x="-22" y="-50" width="44" height="120" fill="#7a7060"/>
    <ellipse cx="0" cy="-58" rx="40" ry="12" fill="#a3998b"/>
    <ellipse cx="0" cy="-60" rx="32" ry="8" fill="url(#rg_water)"/>
    <path d="M0 -64 Q-4 -90 0 -100 Q4 -90 0 -64" fill="#7ab2cf" opacity="0.85"/>
  </g>
  <path d="M600 900 Q700 820 800 800 Q900 820 1000 900 Z" fill="#c8b8a0"/>
  <g stroke="#a89878" stroke-width="2" fill="none">
    <line x1="640" y1="880" x2="660" y2="900"/>
    <line x1="700" y1="850" x2="720" y2="870"/>
    <line x1="760" y1="820" x2="780" y2="840"/>
    <line x1="820" y1="820" x2="840" y2="840"/>
    <line x1="880" y1="850" x2="900" y2="870"/>
    <line x1="940" y1="880" x2="960" y2="900"/>
  </g>
  <g transform="translate(400 320)" fill="#f4c842">
    <ellipse cx="-12" cy="0" rx="14" ry="9"/>
    <ellipse cx="12" cy="0" rx="14" ry="9"/>
    <ellipse cx="-10" cy="14" rx="10" ry="6"/>
    <ellipse cx="10" cy="14" rx="10" ry="6"/>
    <rect x="-1" y="-4" width="2" height="20" fill="#3a2418"/>
  </g>
  <g transform="translate(1140 360)" fill="#bce4f0">
    <ellipse cx="-12" cy="0" rx="12" ry="8"/>
    <ellipse cx="12" cy="0" rx="12" ry="8"/>
    <ellipse cx="-10" cy="14" rx="9" ry="5"/>
    <ellipse cx="10" cy="14" rx="9" ry="5"/>
    <rect x="-1" y="-4" width="2" height="18" fill="#3a2418"/>
  </g>
  <g transform="translate(960 480)" fill="#e85a78">
    <ellipse cx="-10" cy="0" rx="11" ry="7"/>
    <ellipse cx="10" cy="0" rx="11" ry="7"/>
  </g>
  <text x="1580" y="880" text-anchor="end" font-family="ui-monospace, Menlo, monospace" font-size="22" fill="rgba(0,0,0,0.55)">placeholder: castle_royal_garden</text>
</svg>
