<svg xmlns="http://www.w3.org/2000/svg" viewBox="0 0 1600 900" preserveAspectRatio="xMidYMid slice">
  <defs>
    <radialGradient id="sp_dark" cx="0.5" cy="0.5" r="0.6">
      <stop offset="0" stop-color="#3a3328"/>
      <stop offset="1" stop-color="#0a0806"/>
    </radialGradient>
    <radialGradient id="sp_torch" cx="0.5" cy="0.5" r="0.7">
      <stop offset="0" stop-color="#ffd896" stop-opacity="0.8"/>
      <stop offset="1" stop-color="#000" stop-opacity="0"/>
    </radialGradient>
  </defs>
  <rect width="1600" height="900" fill="#1a1410"/>
  <ellipse cx="800" cy="450" rx="800" ry="600" fill="url(#sp_dark)"/>
  <g fill="#3a3328">
    <rect x="0" y="0" width="200" height="900"/>
    <rect x="1400" y="0" width="200" height="900"/>
    <rect x="200" y="0" width="220" height="160"/>
    <rect x="1180" y="0" width="220" height="160"/>
    <rect x="200" y="740" width="220" height="160"/>
    <rect x="1180" y="740" width="220" height="160"/>
  </g>
  <g fill="#5e5246" stroke="#1a1410" stroke-width="2" opacity="0.7">
    <rect x="0" y="0" width="100" height="160"/>
    <rect x="100" y="0" width="120" height="160"/>
    <rect x="0" y="160" width="120" height="200"/>
    <rect x="120" y="160" width="100" height="200"/>
    <rect x="0" y="360" width="100" height="200"/>
    <rect x="100" y="360" width="120" height="200"/>
    <rect x="0" y="560" width="120" height="200"/>
    <rect x="120" y="560" width="100" height="200"/>
    <rect x="0" y="760" width="100" height="140"/>
    <rect x="100" y="760" width="120" height="140"/>
    <rect x="1380" y="0" width="120" height="160"/>
    <rect x="1500" y="0" width="100" height="160"/>
    <rect x="1380" y="160" width="100" height="200"/>
    <rect x="1480" y="160" width="120" height="200"/>
    <rect x="1380" y="360" width="120" height="200"/>
    <rect x="1500" y="360" width="100" height="200"/>
    <rect x="1380" y="560" width="100" height="200"/>
    <rect x="1480" y="560" width="120" height="200"/>
    <rect x="1380" y="760" width="120" height="140"/>
    <rect x="1500" y="760" width="100" height="140"/>
  </g>
  <g transform="translate(700 450)">
    <path d="M0 -350 Q300 -350 300 0 L300 380 L-300 380 L-300 0 Q-300 -350 0 -350 Z" fill="#0a0a08"/>
    <path d="M0 -340 Q280 -340 280 -10 L280 380 L-280 380 L-280 -10 Q-280 -340 0 -340 Z" fill="#1a1814"/>
  </g>
  <g transform="translate(700 700)">
    <rect x="-50" y="-360" width="160" height="540" fill="#5a3a18" stroke="#3a2418" stroke-width="3"/>
    <rect x="-50" y="-360" width="160" height="540" fill="#3a2418" opacity="0.6"/>
    <path d="M-50 -360 Q60 -380 110 -360" stroke="#3a2418" stroke-width="2" fill="none"/>
    <line x1="-30" y1="-340" x2="-30" y2="170" stroke="#1a0e08" stroke-width="2"/>
    <line x1="0" y1="-340" x2="0" y2="170" stroke="#1a0e08" stroke-width="2"/>
    <line x1="40" y1="-340" x2="40" y2="170" stroke="#1a0e08" stroke-width="2"/>
    <line x1="80" y1="-340" x2="80" y2="170" stroke="#1a0e08" stroke-width="2"/>
    <circle cx="92" cy="-100" r="6" fill="#d4a83a"/>
    <ellipse cx="40" cy="180" rx="120" ry="20" fill="#0a0806"/>
  </g>
  <g transform="translate(310 360)">
    <rect x="-12" y="0" width="24" height="180" fill="#5a3a18"/>
    <ellipse cx="0" cy="-10" rx="40" ry="22" fill="#3a2a18"/>
    <path d="M-30 -10 Q-20 -60 0 -90 Q20 -60 30 -10" fill="#ff8a3a" opacity="0.85"/>
    <path d="M-18 -20 Q-10 -50 0 -70 Q10 -50 18 -20" fill="#ffd060"/>
    <ellipse cx="0" cy="-50" rx="120" ry="100" fill="url(#sp_torch)"/>
  </g>
  <g stroke="#a8a098" stroke-width="1" fill="none" opacity="0.7">
    <path d="M200 0 L260 60 L220 120"/>
    <path d="M260 60 L320 30"/>
    <path d="M260 60 L300 110"/>
    <path d="M1400 0 L1340 60 L1380 120"/>
    <path d="M1340 60 L1280 30"/>
    <path d="M1340 60 L1300 110"/>
    <path d="M1400 740 L1340 700"/>
    <path d="M1340 700 L1300 740"/>
    <path d="M200 740 L260 700"/>
    <path d="M260 700 L300 740"/>
  </g>
  <text x="1580" y="880" text-anchor="end" font-family="ui-monospace, Menlo, monospace" font-size="22" fill="rgba(255,255,255,0.45)">placeholder: castle_secret_passage</text>
</svg>
