<svg xmlns="http://www.w3.org/2000/svg" viewBox="0 0 1600 900" preserveAspectRatio="xMidYMid slice">
  <defs>
    <linearGradient id="tt_sky" x1="0" x2="0" y1="0" y2="1">
      <stop offset="0" stop-color="#7aaad4"/>
      <stop offset="0.5" stop-color="#bcd6e8"/>
      <stop offset="1" stop-color="#f0d8b4"/>
    </linearGradient>
    <linearGradient id="tt_stone" x1="0" x2="0" y1="0" y2="1">
      <stop offset="0" stop-color="#8b8170"/>
      <stop offset="1" stop-color="#5e5648"/>
    </linearGradient>
  </defs>
  <rect width="1600" height="900" fill="url(#tt_sky)"/>
  <ellipse cx="280" cy="200" rx="120" ry="40" fill="#fff" opacity="0.7"/>
  <ellipse cx="320" cy="180" rx="80" ry="30" fill="#fff" opacity="0.85"/>
  <ellipse cx="900" cy="160" rx="160" ry="36" fill="#fff" opacity="0.6"/>
  <ellipse cx="940" cy="140" rx="100" ry="28" fill="#fff" opacity="0.85"/>
  <ellipse cx="1380" cy="240" rx="140" ry="34" fill="#fff" opacity="0.65"/>
  <g fill="#5e6a7a" opacity="0.55">
    <path d="M0 540 Q120 510 240 540 Q360 520 480 545 Q580 525 680 540 L680 580 L0 580 Z"/>
    <path d="M920 540 Q1040 510 1160 540 Q1280 520 1400 545 Q1500 525 1600 540 L1600 580 L920 580 Z"/>
  </g>
  <g fill="#3a4250" opacity="0.6">
    <polygon points="40,540 80,460 120,540"/>
    <polygon points="200,545 240,475 280,545"/>
    <polygon points="380,540 420,470 460,540"/>
    <polygon points="600,540 640,490 680,540"/>
    <polygon points="980,540 1020,470 1060,540"/>
    <polygon points="1180,545 1220,475 1260,545"/>
    <polygon points="1360,540 1400,470 1440,540"/>
  </g>
  <g fill="url(#tt_stone)">
    <rect x="0" y="600" width="1600" height="300"/>
    <rect x="0" y="540" width="80" height="60"/>
    <rect x="120" y="540" width="80" height="60"/>
    <rect x="240" y="540" width="80" height="60"/>
    <rect x="360" y="540" width="80" height="60"/>
    <rect x="480" y="540" width="80" height="60"/>
    <rect x="600" y="540" width="80" height="60"/>
    <rect x="720" y="540" width="80" height="60"/>
    <rect x="840" y="540" width="80" height="60"/>
    <rect x="960" y="540" width="80" height="60"/>
    <rect x="1080" y="540" width="80" height="60"/>
    <rect x="1200" y="540" width="80" height="60"/>
    <rect x="1320" y="540" width="80" height="60"/>
    <rect x="1440" y="540" width="80" height="60"/>
  </g>
  <g stroke="#3a3328" stroke-width="2" fill="none">
    <line x1="0" y1="660" x2="1600" y2="660"/>
    <line x1="0" y1="720" x2="1600" y2="720"/>
    <line x1="0" y1="780" x2="1600" y2="780"/>
    <line x1="0" y1="840" x2="1600" y2="840"/>
    <line x1="120" y1="600" x2="120" y2="660"/>
    <line x1="280" y1="660" x2="280" y2="720"/>
    <line x1="440" y1="600" x2="440" y2="660"/>
    <line x1="600" y1="720" x2="600" y2="780"/>
    <line x1="760" y1="600" x2="760" y2="660"/>
    <line x1="920" y1="660" x2="920" y2="720"/>
    <line x1="1080" y1="600" x2="1080" y2="660"/>
    <line x1="1240" y1="780" x2="1240" y2="840"/>
    <line x1="1400" y1="600" x2="1400" y2="660"/>
  </g>
  <g transform="translate(800 540)">
    <rect x="-30" y="-180" width="60" height="180" fill="#3a3328"/>
    <polygon points="-50,-180 0,-260 50,-180" fill="#5a4f3e"/>
    <rect x="-30" y="-280" width="60" height="20" fill="#3a3328"/>
    <line x1="0" y1="-280" x2="0" y2="-340" stroke="#3a3328" stroke-width="6"/>
    <path d="M0 -340 L80 -320 L0 -300 Z" fill="#a3242b"/>
  </g>
  <text x="1580" y="880" text-anchor="end" font-family="ui-monospace, Menlo, monospace" font-size="22" fill="rgba(0,0,0,0.55)">placeholder: castle_tower_top</text>
</svg>
